<?xml version="1.0" standalone="no"?>
<!DOCTYPE svg PUBLIC "-//W3C//DTD SVG 20010904//EN"
 "http://www.w3.org/TR/2001/REC-SVG-20010904/DTD/svg10.dtd">
<svg version="1.0" xmlns="http://www.w3.org/2000/svg"
 width="1198.000000pt" height="1296.000000pt" viewBox="0 0 1198.000000 1296.000000"
 preserveAspectRatio="xMidYMid meet">

<g transform="translate(0.000000,1296.000000) scale(0.100000,-0.100000)"
fill="#000000" stroke="none">
<path d="M0 12890 l0 -70 5990 0 5990 0 0 70 0 70 -5990 0 -5990 0 0 -70z"/>
<path d="M7340 12133 c-183 -13 -362 -47 -505 -94 -82 -28 -168 -60 -190 -73
-22 -12 -56 -29 -75 -36 -73 -29 -270 -168 -409 -289 -195 -170 -389 -474
-476 -744 -20 -61 -44 -127 -52 -145 -21 -42 -63 -67 -138 -80 -106 -20 -288
-60 -365 -83 -41 -11 -91 -25 -110 -29 -137 -32 -381 -138 -635 -275 -276
-149 -648 -463 -860 -725 -80 -99 -215 -277 -215 -284 0 -2 -22 -37 -50 -79
-27 -42 -50 -80 -50 -84 0 -5 -11 -25 -25 -45 -92 -136 -246 -505 -307 -738
-33 -127 -86 -432 -96 -555 -7 -94 -8 -543 -1 -610 18 -167 51 -366 79 -481
33 -131 97 -341 110 -359 4 -5 19 -44 33 -86 23 -67 101 -237 127 -279 5 -8
28 -49 50 -90 59 -106 197 -311 272 -402 35 -42 86 -104 113 -138 137 -170
465 -459 685 -603 14 -9 56 -37 93 -62 37 -25 70 -45 73 -45 3 0 38 -19 77
-43 66 -39 136 -73 287 -140 109 -48 418 -145 545 -171 44 -9 100 -21 124 -26
122 -29 358 -42 661 -37 318 6 463 16 565 41 33 8 87 20 120 26 33 6 98 24
145 40 47 16 103 31 125 35 22 4 54 13 70 20 17 7 46 18 65 25 19 7 55 22 80
33 25 11 79 35 122 53 42 18 105 48 140 67 34 19 94 52 133 73 72 39 290 188
383 261 139 111 348 307 426 400 28 34 86 103 130 155 131 155 276 380 367
568 28 58 59 121 69 140 54 102 172 474 195 612 9 54 20 110 25 125 16 48 32
240 40 473 5 124 9 815 9 1535 1 1170 -5 1561 -25 1685 -19 122 -76 320 -122
420 -16 36 -42 92 -57 125 -15 33 -42 80 -59 105 -17 25 -35 53 -41 62 -47 79
-178 239 -261 319 -283 269 -669 459 -1025 504 -68 9 -137 20 -153 25 -27 9
-135 11 -236 3z m255 -1208 c139 -33 231 -83 331 -182 76 -75 121 -139 154
-223 54 -133 52 -69 50 -1480 -1 -1285 -9 -1824 -29 -1905 -5 -22 -17 -78 -26
-125 -53 -266 -187 -555 -372 -801 -81 -107 -277 -303 -403 -400 -298 -231
-636 -370 -1005 -414 -492 -57 -980 52 -1362 305 -150 100 -234 170 -371 308
-437 439 -638 992 -593 1627 24 324 111 603 274 875 213 354 571 686 914 845
109 51 250 101 366 131 192 48 273 55 748 61 l447 6 5 396 c6 444 7 457 78
601 35 70 59 102 138 180 105 104 189 156 311 190 84 23 255 26 345 5z"/>
<path d="M6000 8139 c-92 -5 -129 -11 -185 -33 -225 -87 -376 -257 -435 -493
-56 -222 22 -470 202 -639 142 -134 273 -186 468 -186 114 -1 200 17 288 58
146 68 249 171 317 319 63 135 66 168 63 587 -2 207 -7 380 -11 385 -10 9
-534 11 -707 2z"/>
<path d="M6860 2444 c-56 -11 -79 -26 -94 -65 -21 -53 -20 -84 5 -135 24 -51
65 -69 141 -62 70 7 100 33 115 98 14 62 0 114 -38 142 -26 19 -88 29 -129 22z"/>
<path d="M2827 2414 c-4 -4 -7 -286 -7 -626 l0 -618 124 0 c110 0 125 2 130
18 3 9 8 223 12 475 l7 458 29 24 c36 31 69 31 145 3 79 -30 130 -66 187 -132
66 -77 90 -149 83 -246 -7 -98 -37 -158 -119 -235 -66 -64 -103 -88 -153 -99
-16 -4 -36 -12 -42 -18 -16 -13 -18 -234 -3 -243 18 -11 151 16 231 47 158 60
293 214 339 388 6 25 16 61 22 81 11 39 6 160 -11 249 -6 30 -29 93 -53 140
-88 175 -258 293 -463 322 -88 12 -448 22 -458 12z"/>
<path d="M5972 2408 c-9 -9 -12 -121 -12 -468 0 -451 0 -457 24 -538 29 -102
61 -144 134 -180 90 -45 148 -54 337 -50 l170 3 3 104 c1 57 -1 108 -6 113 -5
5 -70 12 -143 15 -148 6 -179 17 -221 76 -23 32 -23 34 -28 482 l-5 450 -120
3 c-85 2 -124 -1 -133 -10z"/>
<path d="M7515 2410 c-11 -5 -33 -9 -48 -9 -33 -1 -92 -30 -136 -67 -39 -33
-60 -79 -73 -164 -11 -69 -23 -939 -13 -978 5 -22 8 -23 118 -20 l112 3 5 298
5 299 30 24 c26 20 42 24 130 26 l100 3 0 100 0 100 -108 5 c-104 5 -110 6
-133 33 -31 37 -30 49 7 92 l31 35 88 0 c49 0 95 3 104 6 13 5 16 24 16 103 0
62 -4 101 -12 109 -14 14 -191 16 -223 2z"/>
<path d="M4330 2060 c-8 -5 -26 -10 -39 -10 -31 0 -138 -54 -174 -88 -79 -73
-124 -175 -133 -302 -12 -152 15 -248 99 -358 32 -42 56 -61 125 -95 l86 -42
135 0 136 1 79 39 c94 47 171 118 209 194 30 61 25 86 -21 97 -15 4 -45 17
-68 30 -22 13 -44 24 -47 24 -4 0 -39 -32 -79 -71 -100 -97 -145 -118 -234
-104 -36 5 -57 18 -108 66 -79 74 -96 108 -96 193 0 83 19 122 92 192 80 78
152 94 207 48 17 -14 31 -34 31 -44 0 -20 -48 -65 -133 -125 -31 -22 -59 -45
-61 -51 -7 -18 64 -124 84 -124 10 0 40 17 67 38 26 20 81 60 121 87 213 146
212 146 192 196 -20 48 -123 147 -178 171 -102 44 -252 64 -292 38z"/>
<path d="M8167 2045 c-126 -43 -187 -95 -240 -200 -66 -133 -75 -262 -28 -393
50 -138 104 -201 221 -256 63 -30 70 -31 200 -31 134 0 135 1 212 37 90 43
155 100 203 178 43 71 45 97 8 111 -16 6 -52 22 -82 36 l-54 24 -71 -69 c-79
-78 -115 -100 -181 -109 -64 -8 -123 17 -180 78 -113 121 -114 238 -2 365 85
96 205 112 248 33 16 -30 -7 -57 -101 -123 -45 -32 -83 -63 -86 -71 -11 -27
54 -125 82 -125 7 0 44 22 81 50 37 27 83 60 101 72 19 13 53 38 78 56 24 17
48 32 52 32 4 1 25 16 47 35 l40 35 -30 56 c-87 163 -326 246 -518 179z"/>
<path d="M4970 2018 c0 -7 41 -139 91 -293 50 -154 104 -321 121 -372 53 -164
91 -197 221 -190 130 6 146 30 246 347 34 107 84 263 111 345 28 83 50 156 50
163 0 18 -213 17 -228 -1 -13 -15 -62 -184 -107 -367 -9 -36 -29 -84 -45 -108
-16 -24 -31 -48 -34 -55 -5 -9 -7 -9 -12 0 -3 6 -18 30 -35 52 -16 23 -29 47
-29 54 0 7 -6 35 -14 62 -7 28 -23 86 -35 130 -12 44 -28 98 -36 120 -7 22
-19 59 -25 83 l-11 42 -114 0 c-85 0 -115 -3 -115 -12z"/>
<path d="M6777 1918 c-9 -190 -3 -726 9 -738 7 -7 51 -10 115 -8 l104 3 0 425
0 425 -111 3 -111 3 -6 -113z"/>
</g>
</svg>
