<?xml version="1.0" standalone="no"?>
<!DOCTYPE svg PUBLIC "-//W3C//DTD SVG 20010904//EN"
 "http://www.w3.org/TR/2001/REC-SVG-20010904/DTD/svg10.dtd">
<svg version="1.0" xmlns="http://www.w3.org/2000/svg"
 width="1024.000000pt" height="1024.000000pt" viewBox="0 0 1024.000000 1024.000000"
 preserveAspectRatio="xMidYMid meet">

<g transform="translate(0.000000,1024.000000) scale(0.100000,-0.100000)"
fill="#000000" stroke="none">
<path d="M0 5120 l0 -5120 25 0 25 0 2 5093 3 5092 5063 3 5062 2 0 -5095 0
-5095 30 0 30 0 0 5120 0 5120 -5120 0 -5120 0 0 -5120z"/>
<path d="M2899 7993 c-159 -236 -387 -537 -589 -777 -69 -82 -131 -156 -138
-166 -10 -13 -12 -457 -12 -2222 0 -2451 -6 -2240 68 -2383 46 -87 161 -205
252 -258 36 -21 101 -50 145 -65 l80 -27 1060 0 c963 0 1073 2 1205 18 545 68
1064 249 1442 504 505 339 1141 849 1402 1124 415 437 619 961 643 1654 21
636 -144 1184 -484 1605 -150 185 -417 411 -653 550 -458 272 -961 421 -1670
497 -133 14 -332 17 -1427 20 l-1272 4 -52 -78z m2254 -980 c-83 -2 -223 -2
-310 0 -87 1 -18 3 152 3 171 0 242 -2 158 -3z m275 -10 c-10 -2 -28 -2 -40 0
-13 2 -5 4 17 4 22 1 32 -1 23 -4z m105 -10 c-7 -2 -21 -2 -30 0 -10 3 -4 5
12 5 17 0 24 -2 18 -5z m80 -10 c-7 -2 -19 -2 -25 0 -7 3 -2 5 12 5 14 0 19
-2 13 -5z m74 -9 c-3 -3 -12 -4 -19 -1 -8 3 -5 6 6 6 11 1 17 -2 13 -5z m66
-11 c-7 -2 -19 -2 -25 0 -7 3 -2 5 12 5 14 0 19 -2 13 -5z m54 -9 c-3 -3 -12
-4 -19 -1 -8 3 -5 6 6 6 11 1 17 -2 13 -5z m200 -50 c-3 -3 -12 -4 -19 -1 -8
3 -5 6 6 6 11 1 17 -2 13 -5z m594 -291 c13 -16 12 -17 -3 -4 -10 7 -18 15
-18 17 0 8 8 3 21 -13z m59 -48 c19 -19 32 -35 29 -35 -3 0 -20 16 -39 35 -19
19 -32 35 -29 35 3 0 20 -16 39 -35z m120 -120 c13 -14 21 -25 18 -25 -2 0
-15 11 -28 25 -13 14 -21 25 -18 25 2 0 15 -11 28 -25z m-1935 -345 c279 -24
571 -98 764 -193 275 -137 458 -336 554 -604 119 -331 91 -855 -64 -1201 -34
-75 -40 -79 -254 -132 -252 -63 -506 -90 -870 -90 l-190 0 -525 -525 -525
-525 -130 2 c-71 1 -109 3 -84 5 l46 4 829 830 c456 456 830 833 831 837 3 6
-541 543 -556 550 -4 1 -110 -100 -236 -225 -126 -126 -199 -196 -162 -157
l68 70 -3 682 -3 682 195 0 c107 0 249 -5 315 -10z m-665 -1524 c0 -2 -8 -10
-17 -17 -16 -13 -17 -12 -4 4 13 16 21 21 21 13z m-80 -79 c0 -2 -12 -14 -27
-28 l-28 -24 24 28 c23 25 31 32 31 24z m-320 -310 c0 -1 -44 -45 -97 -97
l-98 -95 95 98 c88 90 100 102 100 94z m-470 -462 c-41 -41 -77 -75 -79 -75
-3 0 28 34 69 75 41 41 77 75 79 75 3 0 -28 -34 -69 -75z m-291 -283 c-24 -26
-46 -47 -48 -45 -5 4 80 93 87 93 3 0 -15 -22 -39 -48z m4446 12 c-26 -20 -55
-36 -55 -30 0 5 63 46 70 46 3 -1 -4 -8 -15 -16z m-4350 -404 c10 -11 16 -20
13 -20 -3 0 -13 9 -23 20 -10 11 -16 20 -13 20 3 0 13 -9 23 -20z m65 -65 c13
-14 21 -25 18 -25 -2 0 -15 11 -28 25 -13 14 -21 25 -18 25 2 0 15 -11 28 -25z
m110 -81 c0 -2 -9 0 -20 6 -11 6 -20 13 -20 16 0 2 9 0 20 -6 11 -6 20 -13 20
-16z m50 -19 c14 -8 21 -14 15 -14 -5 0 -21 6 -35 14 -14 8 -20 14 -15 14 6 0
21 -6 35 -14z m127 -41 c-3 -3 -12 -4 -19 -1 -8 3 -5 6 6 6 11 1 17 -2 13 -5z"/>
</g>
</svg>
